<mxfile host="app.diagrams.net" modified="2024-05-07T17:26:16.808Z" agent="Mozilla/5.0 (Macintosh; Intel Mac OS X 10_15_7) AppleWebKit/605.1.15 (KHTML, like Gecko) Version/16.3 Safari/605.1.15" etag="QUuhnIB_oPDHgutn0JJS" version="24.3.1" type="github">
  <diagram name="第 1 页" id="DyghCHaKKJ_y7i7T3zH4">
    <mxGraphModel dx="1197" dy="873" grid="1" gridSize="10" guides="1" tooltips="1" connect="1" arrows="1" fold="1" page="1" pageScale="1" pageWidth="827" pageHeight="1169" math="0" shadow="0">
      <root>
        <mxCell id="0" />
        <mxCell id="1" parent="0" />
        <mxCell id="QUYrXXtPVXtnhgAEE71l-10" style="edgeStyle=orthogonalEdgeStyle;rounded=0;orthogonalLoop=1;jettySize=auto;html=1;exitX=0.5;exitY=1;exitDx=0;exitDy=0;entryX=0.5;entryY=0;entryDx=0;entryDy=0;" edge="1" parent="1" source="QUYrXXtPVXtnhgAEE71l-1" target="QUYrXXtPVXtnhgAEE71l-2">
          <mxGeometry relative="1" as="geometry" />
        </mxCell>
        <mxCell id="QUYrXXtPVXtnhgAEE71l-1" value="&lt;font style=&quot;font-size: 18px;&quot;&gt;前端上传文件&lt;/font&gt;" style="rounded=1;whiteSpace=wrap;html=1;" vertex="1" parent="1">
          <mxGeometry x="320" y="10" width="130" height="60" as="geometry" />
        </mxCell>
        <mxCell id="QUYrXXtPVXtnhgAEE71l-11" style="edgeStyle=orthogonalEdgeStyle;rounded=0;orthogonalLoop=1;jettySize=auto;html=1;exitX=0.5;exitY=1;exitDx=0;exitDy=0;entryX=0.5;entryY=0;entryDx=0;entryDy=0;" edge="1" parent="1" source="QUYrXXtPVXtnhgAEE71l-2" target="QUYrXXtPVXtnhgAEE71l-3">
          <mxGeometry relative="1" as="geometry" />
        </mxCell>
        <mxCell id="QUYrXXtPVXtnhgAEE71l-2" value="&lt;font style=&quot;font-size: 18px;&quot;&gt;后端解析用户信息，读取文件内容&lt;/font&gt;" style="rounded=0;whiteSpace=wrap;html=1;" vertex="1" parent="1">
          <mxGeometry x="301" y="120" width="168" height="60" as="geometry" />
        </mxCell>
        <mxCell id="QUYrXXtPVXtnhgAEE71l-12" style="edgeStyle=orthogonalEdgeStyle;rounded=0;orthogonalLoop=1;jettySize=auto;html=1;exitX=0.5;exitY=1;exitDx=0;exitDy=0;entryX=0.5;entryY=0;entryDx=0;entryDy=0;" edge="1" parent="1" source="QUYrXXtPVXtnhgAEE71l-3" target="QUYrXXtPVXtnhgAEE71l-4">
          <mxGeometry relative="1" as="geometry" />
        </mxCell>
        <mxCell id="QUYrXXtPVXtnhgAEE71l-3" value="&lt;font style=&quot;font-size: 18px;&quot;&gt;计算文件哈希值&lt;/font&gt;" style="rounded=0;whiteSpace=wrap;html=1;" vertex="1" parent="1">
          <mxGeometry x="320" y="230" width="130" height="60" as="geometry" />
        </mxCell>
        <mxCell id="QUYrXXtPVXtnhgAEE71l-13" style="edgeStyle=orthogonalEdgeStyle;rounded=0;orthogonalLoop=1;jettySize=auto;html=1;exitX=0.5;exitY=1;exitDx=0;exitDy=0;entryX=0.5;entryY=0;entryDx=0;entryDy=0;" edge="1" parent="1" source="QUYrXXtPVXtnhgAEE71l-4" target="QUYrXXtPVXtnhgAEE71l-6">
          <mxGeometry relative="1" as="geometry" />
        </mxCell>
        <mxCell id="QUYrXXtPVXtnhgAEE71l-16" value="&lt;font style=&quot;font-size: 18px;&quot;&gt;Y&lt;/font&gt;" style="edgeLabel;html=1;align=center;verticalAlign=middle;resizable=0;points=[];" vertex="1" connectable="0" parent="QUYrXXtPVXtnhgAEE71l-13">
          <mxGeometry x="-0.096" y="-2" relative="1" as="geometry">
            <mxPoint as="offset" />
          </mxGeometry>
        </mxCell>
        <mxCell id="QUYrXXtPVXtnhgAEE71l-17" style="edgeStyle=orthogonalEdgeStyle;rounded=0;orthogonalLoop=1;jettySize=auto;html=1;exitX=1;exitY=0.5;exitDx=0;exitDy=0;entryX=0;entryY=0.5;entryDx=0;entryDy=0;" edge="1" parent="1" source="QUYrXXtPVXtnhgAEE71l-4" target="QUYrXXtPVXtnhgAEE71l-5">
          <mxGeometry relative="1" as="geometry" />
        </mxCell>
        <mxCell id="QUYrXXtPVXtnhgAEE71l-18" value="&lt;font style=&quot;font-size: 18px;&quot;&gt;N&lt;/font&gt;" style="edgeLabel;html=1;align=center;verticalAlign=middle;resizable=0;points=[];" vertex="1" connectable="0" parent="QUYrXXtPVXtnhgAEE71l-17">
          <mxGeometry x="0.0231" y="-2" relative="1" as="geometry">
            <mxPoint x="-1" y="-3" as="offset" />
          </mxGeometry>
        </mxCell>
        <mxCell id="QUYrXXtPVXtnhgAEE71l-4" value="&lt;font style=&quot;font-size: 18px;&quot;&gt;与MinIO成功建立连接&lt;/font&gt;" style="rhombus;whiteSpace=wrap;html=1;" vertex="1" parent="1">
          <mxGeometry x="325" y="350" width="120" height="110" as="geometry" />
        </mxCell>
        <mxCell id="QUYrXXtPVXtnhgAEE71l-5" value="&lt;font style=&quot;font-size: 18px;&quot;&gt;返回错误&lt;/font&gt;" style="rounded=1;whiteSpace=wrap;html=1;" vertex="1" parent="1">
          <mxGeometry x="550" y="375" width="120" height="60" as="geometry" />
        </mxCell>
        <mxCell id="QUYrXXtPVXtnhgAEE71l-14" style="edgeStyle=orthogonalEdgeStyle;rounded=0;orthogonalLoop=1;jettySize=auto;html=1;exitX=0.5;exitY=1;exitDx=0;exitDy=0;entryX=0.5;entryY=0;entryDx=0;entryDy=0;" edge="1" parent="1" source="QUYrXXtPVXtnhgAEE71l-6" target="QUYrXXtPVXtnhgAEE71l-8">
          <mxGeometry relative="1" as="geometry" />
        </mxCell>
        <mxCell id="QUYrXXtPVXtnhgAEE71l-21" value="&lt;font style=&quot;font-size: 18px;&quot;&gt;Y&lt;/font&gt;" style="edgeLabel;html=1;align=center;verticalAlign=middle;resizable=0;points=[];" vertex="1" connectable="0" parent="QUYrXXtPVXtnhgAEE71l-14">
          <mxGeometry x="-0.1174" y="1" relative="1" as="geometry">
            <mxPoint x="-2" as="offset" />
          </mxGeometry>
        </mxCell>
        <mxCell id="QUYrXXtPVXtnhgAEE71l-19" style="edgeStyle=orthogonalEdgeStyle;rounded=0;orthogonalLoop=1;jettySize=auto;html=1;exitX=1;exitY=0.5;exitDx=0;exitDy=0;entryX=0;entryY=0.5;entryDx=0;entryDy=0;" edge="1" parent="1" source="QUYrXXtPVXtnhgAEE71l-6" target="QUYrXXtPVXtnhgAEE71l-7">
          <mxGeometry relative="1" as="geometry" />
        </mxCell>
        <mxCell id="QUYrXXtPVXtnhgAEE71l-20" value="&lt;font style=&quot;font-size: 18px;&quot;&gt;N&lt;/font&gt;" style="edgeLabel;html=1;align=center;verticalAlign=middle;resizable=0;points=[];" vertex="1" connectable="0" parent="QUYrXXtPVXtnhgAEE71l-19">
          <mxGeometry x="0.0653" y="5" relative="1" as="geometry">
            <mxPoint x="1" y="3" as="offset" />
          </mxGeometry>
        </mxCell>
        <mxCell id="QUYrXXtPVXtnhgAEE71l-6" value="&lt;font style=&quot;font-size: 18px;&quot;&gt;存储桶是否存在&lt;/font&gt;" style="rhombus;whiteSpace=wrap;html=1;" vertex="1" parent="1">
          <mxGeometry x="317.5" y="521.75" width="132.5" height="125.5" as="geometry" />
        </mxCell>
        <mxCell id="QUYrXXtPVXtnhgAEE71l-7" value="&lt;font style=&quot;font-size: 18px;&quot;&gt;创建存储桶&lt;/font&gt;" style="rounded=0;whiteSpace=wrap;html=1;" vertex="1" parent="1">
          <mxGeometry x="550" y="555" width="120" height="60" as="geometry" />
        </mxCell>
        <mxCell id="QUYrXXtPVXtnhgAEE71l-15" style="edgeStyle=orthogonalEdgeStyle;rounded=0;orthogonalLoop=1;jettySize=auto;html=1;exitX=0.5;exitY=1;exitDx=0;exitDy=0;entryX=0.5;entryY=0;entryDx=0;entryDy=0;" edge="1" parent="1" source="QUYrXXtPVXtnhgAEE71l-8" target="QUYrXXtPVXtnhgAEE71l-9">
          <mxGeometry relative="1" as="geometry" />
        </mxCell>
        <mxCell id="QUYrXXtPVXtnhgAEE71l-8" value="&lt;font style=&quot;font-size: 18px;&quot;&gt;把文件上传到存储桶&lt;/font&gt;" style="rounded=0;whiteSpace=wrap;html=1;" vertex="1" parent="1">
          <mxGeometry x="325" y="720" width="120" height="60" as="geometry" />
        </mxCell>
        <mxCell id="QUYrXXtPVXtnhgAEE71l-9" value="&lt;font style=&quot;font-size: 18px;&quot;&gt;返回文件对应的URL&lt;/font&gt;" style="rounded=1;whiteSpace=wrap;html=1;" vertex="1" parent="1">
          <mxGeometry x="325" y="860" width="120" height="60" as="geometry" />
        </mxCell>
        <mxCell id="QUYrXXtPVXtnhgAEE71l-23" value="" style="endArrow=none;html=1;rounded=0;entryX=0.5;entryY=1;entryDx=0;entryDy=0;" edge="1" parent="1" target="QUYrXXtPVXtnhgAEE71l-7">
          <mxGeometry width="50" height="50" relative="1" as="geometry">
            <mxPoint x="610" y="750" as="sourcePoint" />
            <mxPoint x="630" y="760" as="targetPoint" />
          </mxGeometry>
        </mxCell>
        <mxCell id="QUYrXXtPVXtnhgAEE71l-24" value="" style="endArrow=classic;html=1;rounded=0;entryX=1;entryY=0.5;entryDx=0;entryDy=0;" edge="1" parent="1" target="QUYrXXtPVXtnhgAEE71l-8">
          <mxGeometry width="50" height="50" relative="1" as="geometry">
            <mxPoint x="610" y="750" as="sourcePoint" />
            <mxPoint x="600" y="830" as="targetPoint" />
          </mxGeometry>
        </mxCell>
      </root>
    </mxGraphModel>
  </diagram>
</mxfile>
